<svg xmlns="http://www.w3.org/2000/svg" viewBox="0 0 1200 675" role="img" aria-labelledby="title desc">
  <title id="title">Inside AgRup Folge 2 Kryptomillionaere</title>
  <desc id="desc">Dunkles Podcast-Thumbnail fuer Inside AgRup Folge 2 ueber Krypto, Aktien und ETFs.</desc>
  <defs>
    <linearGradient id="bg" x1="0" x2="1" y1="0" y2="1">
      <stop offset="0" stop-color="#080808"/>
      <stop offset="0.46" stop-color="#030303"/>
      <stop offset="1" stop-color="#1f1407"/>
    </linearGradient>
    <linearGradient id="gold" x1="0" x2="1" y1="0" y2="1">
      <stop offset="0" stop-color="#f6d48d"/>
      <stop offset="0.55" stop-color="#c89542"/>
      <stop offset="1" stop-color="#8f6028"/>
    </linearGradient>
    <radialGradient id="pulse" cx="50%" cy="50%" r="50%">
      <stop offset="0" stop-color="#f2c879" stop-opacity=".32"/>
      <stop offset="1" stop-color="#f2c879" stop-opacity="0"/>
    </radialGradient>
    <filter id="softGlow" x="-30%" y="-30%" width="160%" height="160%">
      <feGaussianBlur stdDeviation="20" result="blur"/>
      <feColorMatrix in="blur" type="matrix" values="1 0 0 0 0.95 0 1 0 0 0.68 0 0 1 0 0.28 0 0 0 0.55 0"/>
      <feBlend in="SourceGraphic"/>
    </filter>
    <filter id="shadow" x="-20%" y="-20%" width="140%" height="140%">
      <feDropShadow dx="0" dy="18" stdDeviation="18" flood-color="#000" flood-opacity=".45"/>
    </filter>
  </defs>
  <rect width="1200" height="675" fill="url(#bg)"/>
  <circle cx="958" cy="186" r="330" fill="url(#pulse)"/>
  <circle cx="242" cy="532" r="270" fill="#f2c879" opacity=".08"/>
  <path d="M980 0 756 675h86L1066 0z" fill="#ffffff" opacity=".045"/>
  <path d="M1108 0 884 675h144L1200 154V0z" fill="#ffffff" opacity=".035"/>
  <rect x="58" y="58" width="1084" height="559" rx="44" fill="#050505" opacity=".48" stroke="#c89542" stroke-opacity=".48" stroke-width="2"/>
  <g filter="url(#softGlow)">
    <rect x="88" y="82" width="118" height="118" rx="34" fill="#c89542" fill-opacity=".12" stroke="#f2c879" stroke-opacity=".68" stroke-width="2"/>
    <path d="M147 112c-19 0-34 15-34 34v39h18v-39c0-9 7-16 16-16s16 7 16 16v39h18v-39c0-19-15-34-34-34z" fill="url(#gold)"/>
    <path d="M130 198h34" stroke="#f2c879" stroke-width="10" stroke-linecap="round"/>
  </g>
  <g filter="url(#shadow)">
    <rect x="824" y="88" width="250" height="112" rx="34" fill="url(#gold)"/>
    <text x="949" y="136" text-anchor="middle" fill="#050505" font-family="Inter, Arial, sans-serif" font-size="22" font-weight="950" letter-spacing="3">FOLGE 2</text>
    <text x="949" y="176" text-anchor="middle" fill="#050505" font-family="Inter, Arial, sans-serif" font-size="38" font-weight="950">31.05.</text>
  </g>
  <text x="92" y="284" fill="#f2c879" font-family="Inter, Arial, sans-serif" font-size="25" font-weight="950" letter-spacing="7">INSIDE AGRUP PODCAST</text>
  <text x="90" y="374" fill="#ffffff" font-family="Inter, Arial, sans-serif" font-size="74" font-weight="950" letter-spacing="-3">Sind wir bald</text>
  <text x="92" y="454" fill="#ffffff" font-family="Inter, Arial, sans-serif" font-size="68" font-weight="950" letter-spacing="-3">Kryptomillionaere?</text>
  <rect x="94" y="512" width="478" height="56" rx="28" fill="rgba(242,200,121,.12)" stroke="#f2c879" stroke-opacity=".34"/>
  <text x="333" y="549" text-anchor="middle" fill="#f2c879" font-family="Inter, Arial, sans-serif" font-size="24" font-weight="900">Krypto, Aktien, ETFs</text>
</svg>
