<svg xmlns="http://www.w3.org/2000/svg" viewBox="0 0 1200 675" role="img" aria-labelledby="title desc">
  <title id="title">Inside AgRup Folge 3 Kriminalitaet</title>
  <desc id="desc">Dunkles Podcast-Thumbnail fuer Inside AgRup Folge 3 ueber Kriminalitaet, Sicherheit und Schutz.</desc>
  <defs>
    <linearGradient id="bg3" x1="0" x2="1" y1="0" y2="1">
      <stop offset="0" stop-color="#090807"/>
      <stop offset="0.48" stop-color="#030303"/>
      <stop offset="1" stop-color="#1a1006"/>
    </linearGradient>
    <linearGradient id="gold3" x1="0" x2="1" y1="0" y2="1">
      <stop offset="0" stop-color="#f6d48d"/>
      <stop offset="0.58" stop-color="#c89542"/>
      <stop offset="1" stop-color="#80511f"/>
    </linearGradient>
    <radialGradient id="glow3" cx="50%" cy="50%" r="50%">
      <stop offset="0" stop-color="#f2c879" stop-opacity=".30"/>
      <stop offset="1" stop-color="#f2c879" stop-opacity="0"/>
    </radialGradient>
    <filter id="soft3" x="-30%" y="-30%" width="160%" height="160%">
      <feGaussianBlur stdDeviation="22" result="blur"/>
      <feColorMatrix in="blur" type="matrix" values="1 0 0 0 0.95 0 1 0 0 0.66 0 0 1 0 0.25 0 0 0 0.52 0"/>
      <feBlend in="SourceGraphic"/>
    </filter>
    <filter id="shadow3" x="-20%" y="-20%" width="140%" height="140%">
      <feDropShadow dx="0" dy="18" stdDeviation="18" flood-color="#000" flood-opacity=".45"/>
    </filter>
  </defs>
  <rect width="1200" height="675" fill="url(#bg3)"/>
  <circle cx="964" cy="168" r="330" fill="url(#glow3)"/>
  <circle cx="210" cy="560" r="260" fill="#f2c879" opacity=".08"/>
  <path d="M944 0 720 675h92L1036 0z" fill="#ffffff" opacity=".040"/>
  <path d="M1084 0 858 675h152L1200 170V0z" fill="#ffffff" opacity=".030"/>
  <rect x="58" y="58" width="1084" height="559" rx="44" fill="#050505" opacity=".48" stroke="#c89542" stroke-opacity=".48" stroke-width="2"/>
  <g filter="url(#soft3)">
    <rect x="88" y="82" width="118" height="118" rx="34" fill="#c89542" fill-opacity=".12" stroke="#f2c879" stroke-opacity=".68" stroke-width="2"/>
    <path d="M147 112c-19 0-34 15-34 34v39h18v-39c0-9 7-16 16-16s16 7 16 16v39h18v-39c0-19-15-34-34-34z" fill="url(#gold3)"/>
    <path d="M130 198h34" stroke="#f2c879" stroke-width="10" stroke-linecap="round"/>
  </g>
  <g filter="url(#shadow3)">
    <rect x="824" y="88" width="250" height="112" rx="34" fill="url(#gold3)"/>
    <text x="949" y="136" text-anchor="middle" fill="#050505" font-family="Inter, Arial, sans-serif" font-size="22" font-weight="950" letter-spacing="3">FOLGE 3</text>
    <text x="949" y="176" text-anchor="middle" fill="#050505" font-family="Inter, Arial, sans-serif" font-size="38" font-weight="950">07.06.</text>
  </g>
  <text x="92" y="284" fill="#f2c879" font-family="Inter, Arial, sans-serif" font-size="25" font-weight="950" letter-spacing="7">INSIDE AGRUP PODCAST</text>
  <text x="90" y="370" fill="#ffffff" font-family="Inter, Arial, sans-serif" font-size="70" font-weight="950" letter-spacing="-3">Gehoert Kriminalitaet</text>
  <text x="92" y="452" fill="#ffffff" font-family="Inter, Arial, sans-serif" font-size="64" font-weight="950" letter-spacing="-3">zur Tagesordnung?</text>
  <rect x="94" y="512" width="478" height="56" rx="28" fill="rgba(242,200,121,.12)" stroke="#f2c879" stroke-opacity=".34"/>
  <text x="333" y="549" text-anchor="middle" fill="#f2c879" font-family="Inter, Arial, sans-serif" font-size="24" font-weight="900">Sicherheit, Schutz, Alltag</text>
</svg>
